<svg xmlns="http://www.w3.org/2000/svg" viewBox="0 0 240 240" fill="none">
  <g stroke="#4a3f3a" stroke-width="4" stroke-linejoin="round" stroke-linecap="round">
    <!-- しっぽ（クリーム色の縞模様） -->
    <path d="M165 185 C210 195 224 150 210 120 C202 104 180 104 176 120 C188 124 194 142 186 158 C180 170 168 172 160 167 Z" fill="#f6e6b0"/>
    <path d="M177 120 C181 122 185 127 187 133 L205 124 C203 119 200 116 197 114 C190 112 181 113 177 120 Z" fill="#ffffff"/>
    <path d="M186 156 C181 167 170 171 161 168 C170 175 185 177 195 169 C191 165 188 161 186 156 Z" fill="#ffffff"/>

    <!-- からだ -->
    <ellipse cx="118" cy="166" rx="62" ry="54" fill="#ffffff"/>
    <!-- 前あし -->
    <ellipse cx="96" cy="214" rx="16" ry="11" fill="#ffffff"/>
    <ellipse cx="140" cy="214" rx="16" ry="11" fill="#ffffff"/>

    <!-- あたま -->
    <circle cx="120" cy="92" r="58" fill="#ffffff"/>
    <!-- みみ -->
    <path d="M80 52 L70 14 L112 44 Z" fill="#ffffff"/>
    <path d="M160 52 L170 14 L128 44 Z" fill="#ffffff"/>
  </g>
  <!-- みみの内側 -->
  <path d="M83 47 L77 27 L100 45 Z" fill="#ffc9d4"/>
  <path d="M157 47 L163 27 L140 45 Z" fill="#ffc9d4"/>

  <!-- かお（にっこり閉じ目・口） -->
  <g stroke="#4a3f3a" stroke-width="4" stroke-linecap="round" fill="none">
    <path d="M88 90 Q99 102 110 90"/>
    <path d="M130 90 Q141 102 152 90"/>
    <path d="M114 110 Q120 117 126 110"/>
  </g>
  <!-- ほっぺ -->
  <ellipse cx="80" cy="106" rx="10" ry="6" fill="#ffb3c1" opacity="0.85"/>
  <ellipse cx="160" cy="106" rx="10" ry="6" fill="#ffb3c1" opacity="0.85"/>

  <!-- 四つ葉のクローバー -->
  <g stroke="#4a3f3a" stroke-width="3.5" stroke-linejoin="round">
    <path d="M82 198 C80 190 82 178 89 173" fill="none" stroke-linecap="round"/>
    <circle cx="73" cy="160" r="11" fill="#8fd47f"/>
    <circle cx="91" cy="160" r="11" fill="#8fd47f"/>
    <circle cx="73" cy="178" r="11" fill="#7cc56b"/>
    <circle cx="91" cy="178" r="11" fill="#7cc56b"/>
  </g>
</svg>
